<svg xmlns="http://www.w3.org/2000/svg" xmlns:xlink="http://www.w3.org/1999/xlink" width="264" zoomAndPan="magnify" viewBox="0 0 198 217.499994" height="290" preserveAspectRatio="xMidYMid meet" version="1.0"><defs><g/></defs><g fill="#ffffff" fill-opacity="1"><g transform="translate(75.709882, 113.844562)"><g><path d="M 10.535156 0 L 17.699219 0 L 17.699219 -26.101562 C 23.207031 -26.101562 27.050781 -22.683594 27.050781 -17.75 L 27.523438 -17.75 L 27.523438 -26.574219 L 0.710938 -26.574219 L 0.710938 -17.75 L 1.1875 -17.75 C 1.1875 -22.683594 5.03125 -26.101562 10.535156 -26.101562 Z M 10.535156 0 "/></g></g></g><g fill="#ffffff" fill-opacity="1"><g transform="translate(93.242355, 124.178832)"><g><path d="M 2.371094 0 L 9.539062 0 L 9.539062 -14.332031 C 19.410156 -14.332031 14.140625 -1.1875 23.015625 0 C 26.621094 0.472656 28.378906 0 28.378906 0 C 28.378906 0 26.621094 -0.996094 24.960938 -5.363281 C 22.828125 -11.011719 21.972656 -14.425781 15.707031 -14.425781 C 19.265625 -14.425781 23.300781 -17.273438 23.300781 -20.453125 C 23.300781 -24.867188 19.265625 -26.574219 13.621094 -26.574219 L 2.371094 -26.574219 Z M 9.539062 -14.710938 L 9.539062 -26.242188 L 11.863281 -26.242188 C 14.710938 -26.242188 15.707031 -23.679688 15.707031 -20.3125 C 15.707031 -17.035156 14.902344 -14.710938 12.054688 -14.710938 Z M 9.539062 -14.710938 "/></g></g></g></svg>